<svg xmlns="http://www.w3.org/2000/svg" viewBox="0 0 64 64">
  <defs>
    <linearGradient id="g" x1="0" x2="1">
      <stop offset="0" stop-color="#0f1724" />
      <stop offset="1" stop-color="#4f46e5" />
    </linearGradient>
  </defs>
  <rect width="64" height="64" rx="12" fill="url(#g)" />
  <!-- stylised 'ot' letters to hint at Octane/OT -->
  <g transform="translate(6,12)" fill="#fff">
    <path d="M8 4c-2.2 0-4 1.8-4 4v12c0 2.2 1.8 4 4 4h8c2.2 0 4-1.8 4-4v-4c0-2.2-1.8-4-4-4h-4v-8H8zM12 8h4c1.1 0 2 .9 2 2v4c0 1.1-.9 2-2 2h-4V8z"/>
    <circle cx="36" cy="20" r="8" />
    <rect x="30" y="28" width="12" height="8" rx="2" />
  </g>
</svg>
