<svg version="1.2" xmlns="http://www.w3.org/2000/svg" viewBox="0 0 1550 248" width="1550" height="248">
	<title>OTEX_BIG</title>
	<defs>
		<linearGradient id="g1" x2="1" gradientUnits="userSpaceOnUse" gradientTransform="matrix(-149.254,-189.796,189.847,-149.294,189.195,206.678)">
			<stop offset="0" stop-color="#00008b"/>
			<stop offset="1" stop-color="#1a6aff"/>
		</linearGradient>
	</defs>
	<style>
		.s0 { fill: #ffffff } 
		.s1 { fill: url(#g1) } 
	</style>
	<g>
		<path class="s0" d="m497.7 123.6c0 37.8-21.8 78.7-80.2 78.7-42.2 0-80.6-23.5-80.6-78.7 0-45.8 29-81.1 86.3-77.9 61.1 3.4 74.5 50.7 74.5 77.9zm-108.9-28.8c-5.4 8.4-7.5 18.5-7.5 28.5 0 23.2 11.5 44.2 36.2 44.2 24.6 0 35.5-19.3 35.5-42.2 0-16.2-4-28.8-12.3-36.7-9.2-8.3-19.5-8.6-25.8-8.1-12.7 0.9-20.1 5.1-26.1 14.3z"/>
		<path class="s0" d="m889.1 62.6c4.4-4.6 7.2-8 14.9-11.7 6.9-2.9 16.7-5.2 27.3-5.2 8.9 0 18.9 1.4 26.6 5.7 15.8 8.3 19.8 21.8 19.8 45v102.2h-43.8v-84.2c0-13.4-0.3-18.3-2-22.3-3.4-8-11.2-11.5-19.8-11.5-23.2 0-23.2 18.6-23.2 37.2v80.8h-44.2v-149.2h44.4z"/>
		<path class="s0" d="m823.7 160c-4 8.5-17 42.3-74.5 42.3-44.4 0-75.7-27.1-75.7-76.1 0-36.1 17.8-80.5 76.9-80.5 8.8 0 34.6-1.1 53.9 19.5 19.4 20.9 20.6 50.1 21.2 67h-106.9c-0.3 18.6 10.3 37.2 34.1 37.2 23.8 0 32.3-15.7 37.8-26.3l33.3 16.9zm-43.9-55.3c-0.8-6.3-2-14.6-8.3-21.2-5.4-5.4-13.7-8.3-21.5-8.3-10.6 0-18 5.2-22.4 9.8-6 6.5-7.4 13.4-8.8 19.7z"/>
		<path class="s0" d="m1437.6 80.4h29.3v-31h-29v-31.4h-43.8v31.4h-7l-20.1 31h27.1v71c0 14.3 0.2 24.9 6.3 33.8 9.5 13.7 26.1 14.6 41.3 14.6 8 0 13.7-0.9 23.2-2.3v-34.4l-15.8 0.6c-11.8 0-11.8-7.8-11.5-16.9z"/>
		<path class="s0" d="m999.7 18h43.8v31.4h45.6l-20.1 31h-25.8v66.4c-0.2 9.1-0.2 16.9 11.5 16.9l15.8-0.6v34.4c-9.5 1.4-15.2 2.3-23.2 2.3-15.2 0-31.9-0.9-41.3-14.6-6-8.9-6.3-19.5-6.3-33.8z"/>
		<path class="s0" d="m1507.5 80.4h-5.4v-26.4h-10v-4.6h25.2v4.6h-9.8zm42.5 0h-5.4l0.2-19.1 0.3-6.4-1.5 5.2-6.4 20.3h-4.8l-6.3-20.3-1.6-5.1 0.4 6.3 0.2 19.1h-5.2v-31h7.4l7.7 24.5 7.6-24.5h7.3v31z"/>
		<path class="s0" d="m1227.3 160.1l-8.3 13c-7.9 11.5-22.7 29.2-65.1 29.2-42.3 0-74.3-27.1-74.3-76.1 0-36.1 17.8-80.5 76.9-80.5 8.9 0 34.7-1.1 53.9 19.5 19.5 20.9 20.6 50.1 21.2 67h-106.9c-0.3 18.6 8.9 37.2 32.7 37.2 23.8 0 31-15.7 36.4-26.3l33.6 17zm-41.4-55.4c-0.8-6.3-2-14.6-8.3-21.2-5.4-5.4-13.8-8.3-21.5-8.3-10.6 0-18.1 5.2-22.4 9.8-6 6.5-7.4 13.4-8.9 19.7z"/>
		<path class="s0" d="m1377.6 198.6l-54.8-78.5 45.7-70.7h-50.2l-21.6 33.4-23.3-33.4h-50.2l49.4 70.7-50.8 78.5h50.2l26.7-41.2 28.7 41.2z"/>
		<path class="s0" d="m558.5 62.6c4.2-6.4 17.8-16.9 39.3-16.9 36.7 0 62.5 27.8 62.5 77.6 0 30.6-11.2 79-64.3 79-19.2 0-34-10.6-37.8-16.9v62.6h-44.1v-198.6h44.4zm29.8 17.5c-8 0-16.3 3.2-22.6 11.2-6.3 7.8-9.2 19.8-9.2 32.8 0 17.6 5.2 28.2 10.6 34.4 5.1 5.7 12.6 9 19.8 9 21.5 0 30.9-22.6 30.9-44.5 0-18.4-5.4-37.8-23.5-42.1q-3-0.8-6-0.8z"/>
		<path class="s1" d="m207.5 0h-166.6c-22.6 0-40.9 18.3-40.9 40.8v166.4c0 22.6 18.3 40.8 40.9 40.8h166.6c22.6 0 40.9-18.2 40.9-40.8v-166.4c0-22.5-18.3-40.8-40.9-40.8z"/>
		<path class="s0" d="m174.4 105.8c0-1.5 1.2-2.6 2.6-2.6h13.8c0.9 0 1.7-0.5 2.2-1.2l10.4-16.2c1.2-1.7-0.1-4-2.2-4h-24c-1.4 0-2.6-1.2-2.6-2.6v-16.5c0-1.4-1.2-2.6-2.6-2.6h-25c-1.5 0-2.6 1.2-2.6 2.6v45.8c-8.9-16.9-26.6-28.5-47-28.5-29.2 0-52.9 23.6-52.9 52.8 0 29.2 23.7 52.9 52.9 52.9 20.5 0 38.2-11.6 47-28.6 0.2 7.4 0.9 13.3 4.3 18.4 6.6 9.4 18 10 28.5 10 4.9 0 8.5-0.4 13.8-1.2 1.3-0.2 2.2-1.4 2.2-2.6v-18.8c0-1.5-1.2-2.7-2.7-2.6l-8.1 0.3c-8.1 0-7.9-5.3-7.9-11.7v-43.1zm-77.1 50.7c-13.1 0-23.7-10.6-23.7-23.7 0-13.1 10.6-23.7 23.7-23.7 13.2 0 23.8 10.6 23.8 23.7 0 13.1-10.6 23.7-23.8 23.7z"/>
	</g>
</svg>